<?xml version="1.0" encoding="utf-8"?>
<!-- Generator: Adobe Illustrator 26.0.2, SVG Export Plug-In . SVG Version: 6.00 Build 0)  -->
<svg version="1.1" id="레이어_1" xmlns="http://www.w3.org/2000/svg" xmlns:xlink="http://www.w3.org/1999/xlink" x="0px"
	 y="0px" viewBox="0 0 24 24" style="enable-background:new 0 0 24 24;" xml:space="preserve">
<style type="text/css">
	.st0{fill:none;}
</style>
<g>
	<rect class="st0" width="24" height="24"/>
</g>
<g>
	<g>
		<g>
			<path d="M19,4.9C17.2,3,14.7,2,12,2c-5.5,0-9.9,4.4-9.9,9.9c0,1.8,0.5,3.4,1.3,5L2,22l5.3-1.4c1.4,0.8,3.1,1.2,4.7,1.2l0,0l0,0
				c5.5,0,9.9-4.5,9.9-9.9C22,9.3,20.9,6.8,19,4.9z M12,20.1L12,20.1c-1.5,0-2.9-0.4-4.2-1.1l-0.3-0.2l-3.1,0.8l0.8-3l-0.2-0.3
				c-0.8-1.3-1.3-2.8-1.3-4.4c0-4.5,3.7-8.2,8.2-8.2c2.2,0,4.3,0.9,5.8,2.4c1.6,1.6,2.4,3.6,2.4,5.8C20.3,16.5,16.6,20.1,12,20.1z"
				/>
		</g>
	</g>
</g>
</svg>
